<svg width="16" height="16" viewBox="0 0 16 16" fill="none" xmlns="http://www.w3.org/2000/svg">
<path d="M10.0002 1.33301V7.99967C10.0002 8.73301 9.40016 9.33301 8.66683 9.33301H1.3335V5.07967C1.82016 5.65967 2.56685 6.01967 3.39351 5.99967C4.06685 5.98634 4.6735 5.72634 5.12683 5.29301C5.3335 5.11968 5.50684 4.89967 5.64018 4.65967C5.88018 4.253 6.0135 3.77299 6.00016 3.27299C5.98016 2.49299 5.63351 1.80634 5.09351 1.33301H10.0002Z" stroke="#222F5D" stroke-width="1.125" stroke-linecap="round" stroke-linejoin="round"/>
<path d="M14.6668 9.33301V11.333C14.6668 12.4397 13.7735 13.333 12.6668 13.333H12.0002C12.0002 12.5997 11.4002 11.9997 10.6668 11.9997C9.9335 11.9997 9.3335 12.5997 9.3335 13.333H6.66683C6.66683 12.5997 6.06683 11.9997 5.3335 11.9997C4.60016 11.9997 4.00016 12.5997 4.00016 13.333H3.3335C2.22683 13.333 1.3335 12.4397 1.3335 11.333V9.33301H8.66683C9.40016 9.33301 10.0002 8.73301 10.0002 7.99967V3.33301H11.2268C11.7068 3.33301 12.1468 3.59301 12.3868 4.00635L13.5268 5.99967H12.6668C12.3002 5.99967 12.0002 6.29967 12.0002 6.66634V8.66634C12.0002 9.03301 12.3002 9.33301 12.6668 9.33301H14.6668Z" stroke="#222F5D" stroke-width="1.125" stroke-linecap="round" stroke-linejoin="round"/>
<path d="M5.33333 14.6667C6.06971 14.6667 6.66667 14.0697 6.66667 13.3333C6.66667 12.597 6.06971 12 5.33333 12C4.59695 12 4 12.597 4 13.3333C4 14.0697 4.59695 14.6667 5.33333 14.6667Z" stroke="#222F5D" stroke-width="1.125" stroke-linecap="round" stroke-linejoin="round"/>
<path d="M10.6668 14.6667C11.4032 14.6667 12.0002 14.0697 12.0002 13.3333C12.0002 12.597 11.4032 12 10.6668 12C9.93045 12 9.3335 12.597 9.3335 13.3333C9.3335 14.0697 9.93045 14.6667 10.6668 14.6667Z" stroke="#222F5D" stroke-width="1.125" stroke-linecap="round" stroke-linejoin="round"/>
<path d="M14.6667 8V9.33333H12.6667C12.3 9.33333 12 9.03333 12 8.66667V6.66667C12 6.3 12.3 6 12.6667 6H13.5267L14.6667 8Z" stroke="#222F5D" stroke-width="1.125" stroke-linecap="round" stroke-linejoin="round"/>
<path d="M6.00033 3.33268C6.00033 4.13268 5.647 4.84602 5.09367 5.33268C4.62034 5.74602 4.00699 5.99935 3.33366 5.99935C1.86033 5.99935 0.666992 4.80602 0.666992 3.33268C0.666992 2.49268 1.05366 1.73935 1.66699 1.25269C2.12699 0.886019 2.70699 0.666016 3.33366 0.666016C4.80699 0.666016 6.00033 1.85935 6.00033 3.33268Z" stroke="#222F5D" stroke-width="1.125" stroke-miterlimit="10" stroke-linecap="round" stroke-linejoin="round"/>
<path d="M3.50033 2.49902V3.49902L2.66699 3.99902" stroke="#222F5D" stroke-width="1.125" stroke-miterlimit="10" stroke-linecap="round" stroke-linejoin="round"/>
</svg>
