<svg width="14" height="14" viewBox="0 0 14 14" fill="none" xmlns="http://www.w3.org/2000/svg">
<path d="M1.75586 6.54492V9.16409C1.75586 11.7833 2.80586 12.8333 5.42503 12.8333H8.56919C11.1884 12.8333 12.2384 11.7833 12.2384 9.16409V6.54492" stroke="#222F5D" stroke-width="0.875" stroke-linecap="round" stroke-linejoin="round"/>
<path d="M7.00012 6.99935C8.06762 6.99935 8.85512 6.13018 8.75012 5.06268L8.36512 1.16602H5.64095L5.25012 5.06268C5.14512 6.13018 5.93262 6.99935 7.00012 6.99935Z" stroke="#222F5D" stroke-width="0.875" stroke-linecap="round" stroke-linejoin="round"/>
<path d="M10.681 6.99935C11.8593 6.99935 12.7226 6.04268 12.606 4.87018L12.4426 3.26602C12.2326 1.74935 11.6493 1.16602 10.121 1.16602H8.3418L8.75013 5.25518C8.8493 6.21768 9.71846 6.99935 10.681 6.99935Z" stroke="#222F5D" stroke-width="0.875" stroke-linecap="round" stroke-linejoin="round"/>
<path d="M3.29005 6.99935C4.25255 6.99935 5.12172 6.21768 5.21505 5.25518L5.34339 3.96602L5.62339 1.16602H3.84422C2.31589 1.16602 1.73255 1.74935 1.52255 3.26602L1.36505 4.87018C1.24839 6.04268 2.11172 6.99935 3.29005 6.99935Z" stroke="#222F5D" stroke-width="0.875" stroke-linecap="round" stroke-linejoin="round"/>
<path d="M7.00033 9.91602C6.02616 9.91602 5.54199 10.4002 5.54199 11.3743V12.8327H8.45866V11.3743C8.45866 10.4002 7.97449 9.91602 7.00033 9.91602Z" stroke="#222F5D" stroke-width="0.875" stroke-linecap="round" stroke-linejoin="round"/>
</svg>
